<svg width="20" height="20" viewBox="0 0 20 20" fill="none" xmlns="http://www.w3.org/2000/svg">
<path fill-rule="evenodd" clip-rule="evenodd" d="M20 10C20 4.47715 15.5228 -1.95703e-07 10 -4.37114e-07C4.47715 -6.78525e-07 -1.95703e-07 4.47715 -4.37114e-07 10C-6.78525e-07 15.5228 4.47715 20 10 20C15.5228 20 20 15.5228 20 10ZM14.7071 9.29289C15.0976 9.68342 15.0976 10.3166 14.7071 10.7071L10.7071 14.7071C10.5196 14.8946 10.2652 15 10 15C9.73478 15 9.48043 14.8946 9.29289 14.7071L5.29289 10.7071C4.90237 10.3166 4.90237 9.68342 5.29289 9.29289C5.68342 8.90237 6.31658 8.90237 6.70711 9.29289L9 11.5858L9 6C9 5.44772 9.44772 5 10 5C10.5523 5 11 5.44772 11 6L11 11.5858L13.2929 9.29289C13.6834 8.90237 14.3166 8.90237 14.7071 9.29289Z" fill="#17171B"/>
</svg>
