<svg width="20" height="20" viewBox="0 0 20 20" fill="none" xmlns="http://www.w3.org/2000/svg">
<path fill-rule="evenodd" clip-rule="evenodd" d="M10 0C4.47715 0 0 4.47715 0 10C0 15.5228 4.47715 20 10 20C15.5228 20 20 15.5228 20 10C20 4.47715 15.5228 0 10 0ZM9.29289 5.29289C9.68342 4.90237 10.3166 4.90237 10.7071 5.29289L14.7071 9.29289C14.8946 9.48043 15 9.73478 15 10C15 10.2652 14.8946 10.5196 14.7071 10.7071L10.7071 14.7071C10.3166 15.0976 9.68342 15.0976 9.29289 14.7071C8.90237 14.3166 8.90237 13.6834 9.29289 13.2929L11.5858 11H6C5.44772 11 5 10.5523 5 10C5 9.44772 5.44772 9 6 9H11.5858L9.29289 6.70711C8.90237 6.31658 8.90237 5.68342 9.29289 5.29289Z" fill="white"/>
</svg>
